<?xml version="1.0" encoding="UTF-8"?>
<!DOCTYPE svg PUBLIC "-//W3C//DTD SVG 1.1//EN" "http://www.w3.org/Graphics/SVG/1.1/DTD/svg11.dtd">
<!-- Creator: CorelDRAW -->
<svg xmlns="http://www.w3.org/2000/svg" xml:space="preserve" width="210mm" height="297mm" version="1.1" style="shape-rendering:geometricPrecision; text-rendering:geometricPrecision; image-rendering:optimizeQuality; fill-rule:evenodd; clip-rule:evenodd"
viewBox="0 0 21000 29700"
 xmlns:xlink="http://www.w3.org/1999/xlink">
 <defs>
  <style type="text/css">
   <![CDATA[
    .fil1 {fill:none}
    .fil3 {fill:#FF0025}
    .fil2 {fill:white}
    .fil0 {fill:url(#id3)}
   ]]>
  </style>
    <clipPath id="id0">
     <path d="M10478 12037c0,0 52,195 -79,348 -131,153 -815,999 -815,999 -265,281 -357,506 -308,876 30,225 175,440 293,532 249,194 1249,1004 1249,1004 0,0 21,15 31,4 10,-11 6,-23 3,-35 -3,-13 -38,-239 58,-347 95,-108 902,-1100 902,-1100 0,0 482,-494 129,-1095 0,0 -88,-139 -248,-268 -160,-129 -1172,-960 -1178,-967 -5,-7 -24,-6 -29,1 -5,8 -15,15 -8,48z"/>
    </clipPath>
     <clipPath id="id1">
      <path d="M9747 13182c-96,119 -163,202 -163,202 -265,281 -357,506 -308,876 30,225 175,440 293,532 249,194 1249,1004 1249,1004 0,0 21,15 31,4 10,-11 6,-23 3,-35 -3,-13 -38,-239 58,-347 35,-41 169,-203 323,-391l0 -1845 -1486 0z"/>
     </clipPath>
     <clipPath id="id2">
      <path d="M10478 12037c0,0 52,195 -79,348 -131,153 -815,999 -815,999 -265,281 -357,506 -308,876 30,225 175,440 293,532 249,194 1249,1004 1249,1004 0,0 21,15 31,4 10,-11 6,-23 3,-35 -3,-13 -38,-239 58,-347 95,-108 902,-1100 902,-1100 0,0 482,-494 129,-1095 0,0 -88,-139 -248,-268 -160,-129 -1172,-960 -1178,-967 -5,-7 -24,-6 -29,1 -5,8 -15,15 -8,48z"/>
     </clipPath>
  <linearGradient id="id3" gradientUnits="userSpaceOnUse" x1="11495.6" y1="13066.7" x2="10106.1" y2="14502.5">
   <stop offset="0" style="stop-opacity:1; stop-color:#C8000F"/>
   <stop offset="0.631373" style="stop-opacity:1; stop-color:#FF2514"/>
   <stop offset="1" style="stop-opacity:1; stop-color:#FF0015"/>
  </linearGradient>
 </defs>
 <g id="Layer_x0020_1">
  <metadata id="CorelCorpID_0Corel-Layer"/>
  <g id="Telkomsel.cdr">
   <path class="fil0" d="M10478 12037c0,0 52,195 -79,348 -131,153 -815,999 -815,999 -265,281 -357,506 -308,876 30,225 175,440 293,532 249,194 1249,1004 1249,1004 0,0 21,15 31,4 10,-11 6,-23 3,-35 -3,-13 -38,-239 58,-347 95,-108 902,-1100 902,-1100 0,0 482,-494 129,-1095 0,0 -88,-139 -248,-268 -160,-129 -1172,-960 -1178,-967 -5,-7 -24,-6 -29,1 -5,8 -15,15 -8,48z"/>
   <g style="clip-path:url(#id0)">
    <g>
    </g>
    <g style="clip-path:url(#id1)">
     <image x="8236" y="13182" width="2996" height="3375" xlink:href="Telkomsel_Images\Telkomsel_ImgID1.png"/>
    </g>
    <g style="clip-path:url(#id2)">
    </g>
   </g>
   <path class="fil1" d="M10478 12037c0,0 52,195 -79,348 -131,153 -815,999 -815,999 -265,281 -357,506 -308,876 30,225 175,440 293,532 249,194 1249,1004 1249,1004 0,0 21,15 31,4 10,-11 6,-23 3,-35 -3,-13 -38,-239 58,-347 95,-108 902,-1100 902,-1100 0,0 482,-494 129,-1095 0,0 -88,-139 -248,-268 -160,-129 -1172,-960 -1178,-967 -5,-7 -24,-6 -29,1 -5,8 -15,15 -8,48z"/>
   <path class="fil2" d="M10700 13198l610 0 0 244c0,0 5,81 -77,81 -83,0 -254,0 -254,0 -82,2 -81,-46 -91,-97 -14,-77 -117,-205 -188,-228zm-204 336l-475 0 0 -157c0,0 2,-178 182,-180 180,-2 282,0 282,0 0,0 341,-20 341,335 0,354 0,1058 0,1058 0,0 -8,158 62,244 0,0 -213,78 -306,-13 -94,-91 -79,-194 -81,-251 -2,-58 -5,-1036 -5,-1036z"/>
   <path id="path4" class="fil3" d="M10356 17326c-117,0 -203,-85 -203,-225 0,-139 86,-224 203,-224 118,0 204,85 204,224 0,140 -86,225 -204,225zm0 -632c-235,0 -417,172 -417,407 0,236 171,407 417,407 247,0 418,-171 418,-407 -11,-235 -182,-407 -418,-407zm-760 418c-10,0 -10,-11 0,-11 43,-10 75,-42 107,-75l257 -321 -246 0 -278 354 0 -686 -214 0 0 1125 214 0 0 -364 246 289c43,53 86,75 161,75l149 0 -289 -332c-21,-32 -64,-54 -107,-54l0 0zm2205 -418c-128,0 -214,65 -256,140 -43,-86 -118,-140 -247,-140 -96,0 -171,43 -203,108 0,10 -11,10 -11,0 -10,-54 -64,-97 -117,-97l-86 0 0 793 214 0 0 -397c0,-139 54,-224 161,-224 85,0 128,53 128,149l0 482 214 0 0 -417c0,-139 54,-225 150,-225 86,0 128,53 128,150l0 482 214 0 0 -536c0,-160 -117,-268 -289,-268zm-2729 -203c0,-64 -54,-118 -118,-118l-85 0 0 986c0,117 74,160 149,160 33,0 65,-11 97,-21 -32,-43 -43,-118 -43,-172l0 -835zm-1220 129c0,-118 -97,-215 -214,-215l-204 0c-64,0 -118,54 -118,129l0 96 322 0 0 729c0,117 74,160 149,160 33,0 75,-11 97,-21 -32,-43 -43,-118 -43,-172l11 -706zm310 -43l0 -172 -385 0c-11,0 -11,11 0,11 53,32 96,96 107,161 0,32 21,43 53,43l172 0c41,-1 53,-11 53,-43l0 0zm4389 439c-107,-32 -139,-54 -139,-86 0,-43 42,-75 117,-75 86,0 182,32 236,75l0 -171c-64,-43 -150,-65 -246,-65 -193,0 -311,108 -311,247 0,139 118,203 246,235 107,33 161,54 161,97 0,53 -43,86 -128,86 -118,0 -204,-43 -268,-108l0 182c75,54 171,75 278,75 204,0 321,-96 321,-246 0,-161 -139,-214 -267,-246zm-4357 0c22,-97 86,-172 182,-172 86,0 150,54 161,172l-343 0zm182 -322c-214,0 -396,161 -396,418 0,236 161,407 428,407 97,0 193,-32 279,-75l0 -193c-75,54 -161,86 -257,86 -129,0 -225,-53 -247,-182l557 0c0,-21 11,-54 11,-75 -11,-246 -171,-386 -375,-386zm4721 322c21,-97 85,-172 182,-172 85,0 150,54 160,172l-342 0zm182 -322c-214,0 -396,161 -396,418 0,236 160,407 428,407 96,0 192,-32 278,-75l0 -193c-75,54 -160,86 -257,86 -128,0 -225,-53 -246,-182l557 0c0,-21 10,-54 10,-75 -10,-246 -171,-386 -374,-386zm695 622l0 -825c0,-64 -53,-118 -117,-118l-86 0 0 986c0,117 75,160 150,160 32,0 64,-11 96,-21 -43,-54 -43,-118 -43,-182z" sodipodi:nodetypes="sssssssscsscccccccccccsccsscsccscccsssccsssccsssscsscsscsssccsscccscsccscscssccsscssccssccsccsssccscccscsccsssccscccsssscsscs"/>
  </g>
 </g>
</svg>
